<svg id="Layer_1" data-name="Layer 1" xmlns="http://www.w3.org/2000/svg" viewBox="0 0 835.2 403.2"><defs><style>.cls-1{fill:#f16522;}</style></defs><g id="Emblems"><polygon class="cls-1" points="249.07 104.48 261.61 96.61 274.16 104.48 270.55 90.12 281.91 80.63 267.14 79.62 261.61 65.88 256.1 79.62 241.32 80.63 252.69 90.12 249.07 104.48"/><polygon class="cls-1" points="314.05 41.34 322.29 36.17 330.54 41.34 328.17 31.9 335.64 25.66 325.93 25 322.29 15.96 318.67 25 308.95 25.66 316.43 31.9 314.05 41.34"/><polygon class="cls-1" points="280.35 64.94 289.83 58.99 299.32 64.94 296.59 54.09 305.18 46.9 294.01 46.15 289.83 35.75 285.66 46.15 274.49 46.9 283.08 54.09 280.35 64.94"/><path class="cls-1" d="M668.76,213.37c18.19-.14,22.77-12.54,22.71-13.8s-6.47,2-28-.49c-11.6-1.35-19.51-2.5-24.37-3.27-.52,2.25-2.55,5.78-5.67,8.76a27.46,27.46,0,0,1-5,3.71C649.25,211.68,657.7,213.46,668.76,213.37Z"/><path class="cls-1" d="M785,127.91c.24-3.26-11,5.44-40.8,6.13-4.46.11-10,.13-15.94.11-4.45,6.31-13.18,13.44-30.34,17.15a3.47,3.47,0,0,1,.94,2.37V154c24.95,1,46.59.34,56.31-1.84C783.08,145.87,784.85,130,785,127.91Z"/><path class="cls-1" d="M753.21,90.44a4.25,4.25,0,0,1,.88.5,3.9,3.9,0,0,1,1.5,3.37,23.38,23.38,0,0,1-3,9.73c19.31-.58,32.47-2,42.79-5.71C824.27,88,824,70.82,823.9,68.6c-.19-3.5-10.49,6.13-42.06,10.86-5.64.85-11.62,1.5-17.47,2A42.29,42.29,0,0,1,753.21,90.44Z"/><path class="cls-1" d="M660.82,93.82q-1.64,1.79-3.51,3.63c41.19,1.85,63.9,1,80.16-3.92,29.92-9,30.6-26.43,30.6-28.69,0-3.57-11.55,6.79-43.93,9.88-16.27,1.56-36.1,1.57-47.5,1.4C673.07,80.37,668,86,660.82,93.82Z"/><path class="cls-1" d="M592,145.94c43,4.86,88.62,5.69,104.69,2.31,30.57-6.42,32.72-23.75,32.91-26,.3-3.56-12.08,5.79-44.6,6.13-16.77.18-47-.82-64.46-1.47C610.45,134,600.36,140.64,592,145.94Z"/><path class="cls-1" d="M752.35,94.15c.17-3.56-11.86,6.23-44.35,7.77-17,.8-41.2-.23-54.39-.93a308.91,308.91,0,0,1-27.72,22.13c41.26,3.17,78.72,2.16,94.53-1.78C750.73,113.8,752.25,96.41,752.35,94.15Z"/><path class="cls-1" d="M586.58,149.38c-6.17,3.85-6.12,10.45-5.34,20.07l.07.84v.4c33.83,4.49,70.38,3.1,82.93,1.41,25.42-3.43,31.35-16.59,31.36-18.44s-24.07,1.28-50.76.46c-20.31-.62-41.62-4.44-54.47-7.14Z"/><path class="cls-1" d="M639.53,190.62c20.92-1.74,24.69-13.06,24.69-14.52s-18.94,1-40,.37c-15.3-.47-32-2.45-42.78-3.93.29,4.39.45,9.27.29,14.22C606.19,190.41,630.16,191.4,639.53,190.62Z"/><path class="cls-1" d="M609,209.36c21,.91,27-13.11,27-14.57s-7.58,1.93-32.22-2.22c-9.4-1.58-16.68-2.93-22.1-4a74.09,74.09,0,0,1-2.39,16.29C595.85,208.44,597.48,208.86,609,209.36Z"/><path class="cls-1" d="M807,100.28c.12-3.57-11.78,6.37-44.25,8.32-4.18.25-8.79.4-13.57.47-3.4,4.05-8.61,8.24-16.58,11.64a4.16,4.16,0,0,1,.23,1.82,22.35,22.35,0,0,1-2.11,7.37c19.69.75,35.55.37,44.69-2C805.65,120,807,102.54,807,100.28Z"/><path class="cls-1" d="M752.36,158.07c0-1.84-23,1.51-48.57,1.05-2.33,0-4.66-.13-7-.25-3.38,5.38-11.61,13.07-29.54,16.06a3.68,3.68,0,0,1,.22,1.18,6.36,6.36,0,0,1-.26,1.56c24.22,1.09,46.32-.24,55.36-1.58C746.86,172.5,752.37,159.84,752.36,158.07Z"/><path class="cls-1" d="M718.48,181c0-1.44-18.12,1.19-38.24.83-4.8-.08-9.75-.32-14.6-.65h0c-.15.26-.32.51-.5.78l-.09.12c-.14.21-.3.43-.46.64l-.17.22-.46.58c-.07.07-.13.15-.2.23s-.35.4-.54.6l-.18.2c-.23.23-.46.47-.71.7l-.09.09a23.21,23.21,0,0,1-1.93,1.64l-.1.07c-.31.24-.64.48-1,.71l-.19.13c-.32.22-.66.43-1,.64l-.2.13c-.38.23-.78.45-1.18.67l-.11,0a34,34,0,0,1-4.64,2h-.14c-.51.18-1,.35-1.59.51l-.26.08q-.81.24-1.65.45l-.25.06c-.64.16-1.29.3-2,.44h0c21.12,2.5,40.84,3,49,2.19C715,193.27,718.49,182.39,718.48,181Z"/><path class="cls-1" d="M169.4,213.37c11.06.09,19.5-1.69,40.27-5.09a26.77,26.77,0,0,1-4.95-3.71c-3.12-3-5.16-6.51-5.68-8.76-4.85.77-12.77,1.92-24.37,3.27-21.51,2.5-27.93-.81-28,.49S151.2,213.23,169.4,213.37Z"/><path class="cls-1" d="M83,152.11c9.73,2.18,31.36,2.81,56.31,1.84v-.28a3.45,3.45,0,0,1,1-2.37c-17.16-3.71-25.9-10.84-30.35-17.15-6,0-11.48,0-15.94-.11-29.8-.69-41-9.39-40.8-6.13C53.3,130,55.07,145.87,83,152.11Z"/><path class="cls-1" d="M42.73,98.33C53.05,102,66.2,103.46,85.51,104a23.57,23.57,0,0,1-3-9.73A3.9,3.9,0,0,1,84,90.9a4.18,4.18,0,0,1,.87-.5,42.57,42.57,0,0,1-11.16-9c-5.85-.51-11.83-1.16-17.46-2-31.53-4.67-41.83-14.3-42-10.8C14.13,70.82,13.88,88,42.73,98.33Z"/><path class="cls-1" d="M100.68,93.53c16.27,4.89,39,5.77,80.16,3.92q-1.86-1.85-3.51-3.63c-7.13-7.8-12.24-13.45-15.82-17.7-11.4.17-31.22.16-47.49-1.4-32.38-3.09-43.93-13.45-43.93-9.88C70.09,67.1,70.77,84.55,100.68,93.53Z"/><path class="cls-1" d="M153.13,128.38c-32.53-.34-44.91-9.69-44.61-6.13.19,2.25,2.34,19.58,32.91,26,16.07,3.38,61.72,2.55,104.69-2.31-8.33-5.3-18.42-11.91-28.54-19C200.16,127.56,169.9,128.56,153.13,128.38Z"/><path class="cls-1" d="M130.15,101.92c-32.49-1.54-44.52-11.33-44.35-7.77.11,2.26,1.62,19.65,31.93,27.19,15.81,3.94,53.28,5,94.53,1.78A308.81,308.81,0,0,1,184.54,101C171.35,101.69,147.15,102.72,130.15,101.92Z"/><path class="cls-1" d="M251.58,149.38l-3.81-2.4c-12.85,2.7-34.17,6.52-54.47,7.14-26.7.82-50.77-2.38-50.76-.46s5.93,15,31.35,18.44c12.55,1.69,49.1,3.08,82.93-1.41v-.4l.07-.84C257.7,159.83,257.75,153.23,251.58,149.38Z"/><path class="cls-1" d="M213.9,176.47c-21,.64-40-1.87-40-.37s3.77,12.78,24.69,14.52c9.38.78,33.35-.21,57.78-3.86-.16-4.95,0-9.83.28-14.22C245.92,174,229.2,176,213.9,176.47Z"/><path class="cls-1" d="M229.13,209.36c11.55-.5,13.18-.92,29.73-4.51a74.09,74.09,0,0,1-2.39-16.29c-5.42,1.08-12.7,2.43-22.1,4-24.64,4.15-32.23.71-32.23,2.22S208.16,210.27,229.13,209.36Z"/><path class="cls-1" d="M88.94,109.07c-4.78-.07-9.39-.22-13.56-.47C42.91,106.65,31,96.71,31.13,100.28c.08,2.26,1.37,19.67,31.59,27.59,9.13,2.4,25,2.78,44.69,2a22.12,22.12,0,0,1-2.12-7.37,4.32,4.32,0,0,1,.24-1.82C97.55,117.31,92.35,113.12,88.94,109.07Z"/><path class="cls-1" d="M115.58,176.09c9,1.34,31.14,2.67,55.36,1.58a6.35,6.35,0,0,1-.25-1.56,3.43,3.43,0,0,1,.22-1.18c-17.94-3-26.17-10.68-29.55-16.06-2.34.12-4.67.21-7,.25-25.56.46-48.55-2.89-48.57-1.05S91.3,172.5,115.58,176.09Z"/><path class="cls-1" d="M143.13,195.18c8.15.79,27.87.31,49-2.19h0c-.68-.14-1.34-.28-2-.44l-.24-.06q-.85-.21-1.65-.45l-.24,0c-.55-.16-1.08-.33-1.6-.51h-.14a34,34,0,0,1-4.64-2l-.1-.05c-.41-.22-.8-.44-1.18-.67l-.21-.13c-.34-.21-.68-.42-1-.64l-.19-.13c-.34-.23-.66-.47-1-.71l-.1-.07c-.7-.54-1.34-1.09-1.93-1.64l-.09-.09-.7-.7-.19-.2-.53-.6-.2-.23c-.16-.2-.32-.39-.46-.58a1.84,1.84,0,0,1-.17-.22c-.17-.21-.32-.43-.47-.64L173,182c-.17-.27-.34-.52-.5-.78h0c-4.84.33-9.79.57-14.59.65-20.13.36-38.23-2.27-38.25-.83S123.13,193.27,143.13,195.18Z"/><path class="cls-1" d="M380.82,188.64c5.92,1.34,9.4-.95,14.1,2.7a53.59,53.59,0,0,0,16.23,9.19c14,5.28,29,4.38,38.14-2.35-13.2,4.13-26.52.26-34.82-3-6.33-2.5-21.15-9.89-32.36-28.7A42.48,42.48,0,0,0,385,177.79C386.33,181.25,383.81,186.58,380.82,188.64Z"/><path class="cls-1" d="M273.45,305.2l-3.13.24-.11,7.94,3-.26c1.88-.16,1.89-.92,1.9-1.28l.08-5.81c0-.41-.13-.54-.17-.58A2.44,2.44,0,0,0,273.45,305.2Z"/><path class="cls-1" d="M274.6,272.13h-.3l-2.82.12c-1.78.07-1.78.62-1.79.8l-.23,17.37c0,.19.05.24.07.26s.39.31,1.64.24l3.08-.19c1.55-.1,1.56-.61,1.56-.83l.23-17.22a.38.38,0,0,0-.08-.27C275.88,272.34,275.58,272.13,274.6,272.13Z"/><path class="cls-1" d="M832,320.23c0-7.57-1-12.82-3.24-17a31.48,31.48,0,0,0-7.87-9.57,90,90,0,0,0-8-5.71l2.47.21a15.27,15.27,0,0,0,16.53-13.89q.06-.67.06-1.35v-13.2c0-24-14.62-38.57-39-39.08l-12.61-.31c-9.73-.19-17.83,1.7-24.23,5.63A15.25,15.25,0,0,0,744,219.48c-16.44-.36-33.21-.7-49.85-1h-.29a15.28,15.28,0,0,0-15.27,15.29v.16l.9,81c-2.84-.41-5.67-.82-8.52-1.21l-1-80.84A15.16,15.16,0,0,0,665.18,222c2.19-1.47,3.32-2.8,3.37-3.26.16-1.43-8.52-.07-33.69-4.39-5.82-1-10.74-1.94-14.73-2.75-1.08.26-2.16.47-3.26.63a2.26,2.26,0,0,1,0,.52c-.19,1.56-1.85,4.25-4.47,6.83-1.16-.39-2.38-.74-3.67-1.05,3.31-2.78,4.85-5.58,4.92-6.19.19-1.49-7.95,1.19-32-4.49l-3.08-.73c-.34,1-.71,2-1.12,2.95a30.24,30.24,0,0,1-4.54,7.16q-2.56.3-4.92.81a3.82,3.82,0,0,0,.21-.46,30.85,30.85,0,0,0,6.28-8.82c5-11.42,4.29-29.28,3.57-38.21s-1.78-18.57,6.79-23.93,54.28-33.92,73.57-55,25-27.86,21.07-28.93c0,0-44.64,34.28-82.86,49.28-17.16,6.74-27.18,12.18-32.89,17.13A152.13,152.13,0,0,0,545.5,93.76a61.78,61.78,0,0,0,5.9-26.43V65.72a62.11,62.11,0,1,0-39.2,59.36v9.08c.13,10.28,3.93,42.42.19,54.77-5.07,16.71-6.78,23.94-11.72,29.43-5.47,6.09-13.16,4-21.59.67,2.46,3.29,4.85,6.71,7.59,8.57s2.86,5.4-1.67,6.4c-4.07.87-12,.06-18.47-2.78-7.36-3.22-17.64-12.06-30.44-18.73,5,5.25,16.73,17.77,10.32,20.1-6.77,2.46-24.23,1.28-36.7-4.23-20.36-9-38.53-24.77-36-37.06-12.12,3.61-24-7-25-10.39-1.34-4.32,15.91-8.25,23.11-18.82.26-.39-7.3,3.84-12.43,5.25s-14.61,1.49-24.15,1.07c-15.89-.7-22.91,6.48-29.06,10.14A50.63,50.63,0,0,1,296,183.14c0-1-.09-2-.09-3a121.13,121.13,0,0,1,17-62c7.28.89,16.29.23,24.7-1.49l2.22-.43c16.95-3.28,31.57,4.8,35.65,7.35a58.67,58.67,0,0,1,8.07,6.15A89.36,89.36,0,0,1,396,143.83a8,8,0,0,1,.18,4.92c-2.5,7.32-13.77,11.51-13.77,11.51,22.61-3,29.83-10.23,42.11-8a31.42,31.42,0,0,1,10.15,4.61,43.85,43.85,0,0,1,4.29,3.4A59.15,59.15,0,0,1,450.46,175l2.93,5.1c3.48,7.43,8.21,17.76,14.68,24.72-3.92-7.31-6.1-10.9-7.89-20.11,3.5,9.34,15.11,19.9,22.13,24.28-6.41-6.33-13.87-15.67-17.86-28-.93-2.89-.53-9-.21-11.74.36-3.1,7-18.67,9.57-20,3.56-1.88,4.76,10.54,15.05,20.93-4.85-10.24-7.52-19.31-8-25-.31-3.61.14-9.53,1-15.85a65.31,65.31,0,0,1-61-69.38,64.09,64.09,0,0,1,1.41-10c-1.07,0-2.14-.08-3.21-.08A131.12,131.12,0,0,0,293.5,142.41c-.27.92-.55,1.84-.8,2.76-.1.34-.19.67-.28,1-.29,1.1-.58,2.2-.85,3.31a2.23,2.23,0,0,1-.1.43,128.76,128.76,0,0,0,.35,61.3q.76,3,1.66,6a14.59,14.59,0,0,0-2.75,1.27,15.4,15.4,0,0,0-4.33-2.3c-.63-.86-1.24-1.72-1.83-2.59a136.09,136.09,0,0,1-4.18-33.43c0-75.92,62.21-137.68,138.69-137.68,1.77,0,3.54.07,5.3.13a64.65,64.65,0,0,1,7.14-14.43c-4.11-.33-8.25-.54-12.44-.54A153.72,153.72,0,0,0,274.4,129.11c-5.72-5-15.73-10.39-32.89-17.13C203.3,97,158.66,62.7,158.66,62.7c-3.93,1.07,1.78,7.86,21.07,28.93s65,49.64,73.57,55,7.5,15,6.78,23.93-1.43,26.79,3.57,38.21a27.78,27.78,0,0,0,4.36,6.72h-1.55a16.38,16.38,0,0,0-2.42.23,29.05,29.05,0,0,1-3.36-5.65c-.41-.95-.77-1.94-1.12-2.95l-3.08.73c-24,5.68-32.16,3-32,4.49.06.51,1.13,2.51,3.35,4.75h-2.06a14.62,14.62,0,0,0-2.09.18,10.82,10.82,0,0,1-2.42-4.54,4.51,4.51,0,0,1,0-.52c-1.14-.16-2.22-.38-3.26-.63-4,.81-8.91,1.75-14.72,2.75a262,262,0,0,1-30.07,3.54l-7,.11a15.22,15.22,0,0,0-5.76,1.23,15.22,15.22,0,0,0-5.5-1h-.26l-19.91.36a15.29,15.29,0,0,0-14.4,11.09v.16a15.22,15.22,0,0,0-14.88-10.66l-19.9.43a15.24,15.24,0,0,0-9.92,4q-8.64-3.51-20.43-3.27l-13.76.34c-23.88.51-38.16,15.11-38.19,39l-.16,89.43c0,12.38,3.79,21.67,11.31,27.59,5.1,4,11.35,6,18.66,6a49.91,49.91,0,0,0,11.67-1.5c12.77-3,25.74-5.9,38.56-8.6A15.26,15.26,0,0,0,95.47,357.8h0a15.26,15.26,0,0,0,16.9,9c6.56-1.26,13.22-2.49,19.81-3.66a15.28,15.28,0,0,0,12.59-14.88l.42-39.59q2.64-7.92,5.33-15.84L150,342a15.28,15.28,0,0,0,15.09,15.45h.18a15.4,15.4,0,0,0,2.35-.18c6.57-1,13.27-2,19.91-3a15.27,15.27,0,0,0,13.11-15.39l-.1-5.32,11.14-1.23v.76A15.28,15.28,0,0,0,226.29,349a14.66,14.66,0,0,0,2.39-.08c6.63-.78,13.35-1.52,20-2.22a15.2,15.2,0,0,0,6.76-2.4,15.25,15.25,0,0,0,7.76,2.13,14.27,14.27,0,0,0,1.46-.07l6-.56a15.36,15.36,0,0,0,3.73-.82,15.2,15.2,0,0,0,3.81.15l5.68-.49a15.14,15.14,0,0,0,8.32-3.35,15.38,15.38,0,0,0,5.45,1h1.12c6.73-.49,13.47-.94,20.05-1.34a15.27,15.27,0,0,0,14.34-15.65v-2.08c3.78-.16,7.55-.32,11.33-.46v.33A15.27,15.27,0,0,0,359.11,339c.35,0,.7,0,1.05,0,6.68-.24,13.44-.44,20.08-.59a15.24,15.24,0,0,0,13.7-9.29c5.85,5.06,15,8.84,29.21,8.87,5.65,0,11.36.07,16.93.15h1.27c13.37,0,23.19-3.28,30-10,.47-.46.95-1,1.43-1.52,5.35,6.87,15,12.8,32.38,13.73,4.11.22,8.22.46,12.3.71,1.77.11,3.48.17,5.13.17,11.85,0,20.7-2.91,26.94-8.83L550,332a31.72,31.72,0,0,0,5.47,5.33c6.39,4.88,14.87,7.8,25.94,8.93,4.31.43,8.61.89,12.87,1.35a71.7,71.7,0,0,0,7.89.47c7.91,0,14.42-1.58,19.69-4.77a15.29,15.29,0,0,0,12,9.12c15.71,2.1,31.62,4.47,47.28,7a14.74,14.74,0,0,0,2.48.21,15.63,15.63,0,0,0,3.4-.4,15.17,15.17,0,0,0,5.5,2.1c16.36,2.81,32.88,5.91,49.1,9.21a15.11,15.11,0,0,0,3,.3,15.31,15.31,0,0,0,9.72-3.48l.24-.23c5.79,5.19,13.42,8.95,22.73,11.1,4,.91,8.06,1.85,12,2.77a53,53,0,0,0,12.35,1.59c7.53,0,13.93-2,19.1-6.13,7.5-5.92,11.3-15.12,11.29-27.34ZM342.16,108a59.36,59.36,0,0,1,14.59.12,62.3,62.3,0,0,1,15.71,4.48c9.9,4.21,18.21,11.08,25.28,19.09A103.69,103.69,0,0,1,407,143.8a39.43,39.43,0,0,1,17.65-.84,42.55,42.55,0,0,1,20.5,10.53,62.09,62.09,0,0,1,6.22,6.55c1.79-3.27,3.75-6.45,5.79-9.57a63.61,63.61,0,0,1,7.31-9.13c2.61-2.73,6-5.3,7.54-8.84-.3.91-.47,1.27-.46,1.17-1.18,2.63-3.29,4.85-5.07,7.06a66.38,66.38,0,0,0-6,8.59,102.52,102.52,0,0,0-8.41,18.62c-5.72-8.59-13.53-16.3-23.47-19.71a35.17,35.17,0,0,0-18.17-1.15,33.33,33.33,0,0,0-3.57.91c-.25.08-1.36.64-1.64.54s-.55-.88-.67-1.08q-2.15-3.44-4.52-6.72a98.46,98.46,0,0,0-10.24-12,62.36,62.36,0,0,0-27.45-16.23,51.92,51.92,0,0,0-18.64-1.82,9.24,9.24,0,0,1-2.46.27c-.49-.15-.34-.16-.68-.81a20.11,20.11,0,0,0-2.32-3.46,54.44,54.44,0,0,0-6.19-6.24C335.67,102.51,339.39,104.78,342.16,108Zm-17.35-6.43c.25.15.48.28.74.45a21.17,21.17,0,0,1,3.13,2.19c.92.83,1.87,1.73,2.8,2.66.58,5-7.68,9.43-18.39,11.11a123.34,123.34,0,0,1,11.72-16.45ZM83.62,273.72l-2.47.17-20,1.44-2.89.21.08-14.23c0-2.41-.47-4.1-1.44-5.05s-2.3-1.25-4.31-1.18l-5,.18c-3.22.11-6.2,1.06-6.22,7.27l-.25,81.38c0,2.39.46,4.08,1.31,4.76s2.72.54,4,.23q5.69-1.31,11.38-2.57L58,320.44l-7.25,1.19-3.12.51.1-21.22,2.31-.31c10-1.35,20.25-2.66,30.38-3.91l3-.37-.52,64.84-2,.48C68,364.7,54.9,368,42.14,371.38a36.11,36.11,0,0,1-9.35,1.4,16.36,16.36,0,0,1-10.2-3c-4.4-3.36-6.63-9.4-6.63-18v-91.2c0-8.61,2.21-15.24,6.57-19.7s10.88-6.75,19.33-6.75h0l13.8-.07h0c10,0,17.46,2.39,22.14,7.12,4,4,6,9.66,5.91,16.78Zm74-36.47c-8.54,23-17,46.69-25,70.36l-.53,42.88-2.12.43c-6.62,1.32-13.33,2.72-19.93,4.14l-3.28.7.49-45.53c-7.94-23.35-15.94-47.85-23.78-72.84l-1.09-3.46,25.54-.11.56,1.94c4,14,8.09,28,12.16,41.59,3.94-14,8-28,12-41.72l.56-1.91,25.74-.09Zm54.83-12a16.44,16.44,0,0,0-1,2.42q-2.2,6.84-4.39,13.66-1.86-6.33-3.68-12.67a14.86,14.86,0,0,0-1-2.6c2.82-.28,6.33-.53,10.1-.79ZM249.56,332l-2.33.27c-6.67.79-13.44,1.63-20.14,2.51l-3.18.41,2.28-47.17c-3.27,9.71-6.51,19.41-9.66,29l-.53,1.62-1.7.2c-5.11.59-10.32,1.22-15.5,1.86l-2.21.28L196,318.9c-2.95-9.33-5.9-18.8-8.82-28.31l.83,49.92-2.29.36c-6.61,1.06-13.36,2.2-20,3.36l-3.18.56L164,233.61l26.83-.08.57,1.91c5,16.8,10.11,33.61,15.25,50.08,5.5-16.69,11.18-33.57,16.92-50.29l.62-1.8,26.82-.06Zm16.23-98H282.5l-.07,5.06h-8.89l-.09,6.38,7.9-.1-.07,5.06-7.89.13-.17,12.25-7.84.24Zm16.72,94-5.73.55-.7.06-.24-.65q-1.8-4.92-3.59-9.85l-2.14.19L270,329.22l-.81.08-6,.64-1,.1.41-29.11.83-.07q5.91-.45,11.82-.87c3.06-.21,5.19.28,6.48,1.51A4.51,4.51,0,0,1,283,305l-.09,6.59a5.55,5.55,0,0,1-3.39,5.23q1.88,5,3.76,9.93l.42,1.12Zm1.11-38.15c0,3.56-2.8,5.54-8.2,5.89l-5.65.37h-1.41c-2.52,0-4.3-.53-5.44-1.61a4.53,4.53,0,0,1-1.34-3.5l.25-18c0-2.54,1.48-5.61,8.15-5.85l5.77-.21c3.24-.12,5.45.46,6.78,1.76a4.6,4.6,0,0,1,1.32,3.48Zm39.11-104.41c12.16-3.83,18.29,8.18,18.16,14.33-.08,4-14.58,12.07-34,16.53h-3.31a81,81,0,0,1-6.88-24c9.38-2.06,17.64-4.25,26.06-6.9Zm59.8,137.33-2.6.06c-6.72.17-13.53.4-20.25.66l-2.91.12.13-2.91q.87-19.53,1.73-39-4.75,12.52-9.53,25.19l-.63,1.65-1.77.08c-5.14.2-10.38.43-15.58.69l-2,.09-.68-1.84c-3.09-8.37-6.14-16.72-9.12-24.94q.53,20.22,1.07,40.41l.07,2.57-2.56.17c-6.71.46-13.51,1-20.22,1.52l-2.93.25,1-84.31H296l-.23-.46.11-9.49h26.73l.64,1.78c5,14.18,10.29,28.84,15.71,43.67,5-13.33,10.34-27.43,16.54-43.76l.65-1.73h24.27c.78.48,1.6,1,2.45,1.44Zm80.41-6.47c-4.24,4.19-11.22,6.23-21.33,6.23h-1.32c-5.62-.08-11.37-.14-17.1-.16-17.91,0-27-6.31-26.94-18.6l.13-63.08a100.75,100.75,0,0,0,25.47,5.21v58.14c0,.76,0,2.8,6.21,2.84l8.25.07c3.33,0,4.57-.68,5-1.11a2,2,0,0,0,.52-1.59L441.65,246a167.08,167.08,0,0,0,21.11-3s1.65.27,4.35.57l.32,60.89C467.47,309.34,466,313.35,462.94,316.33Zm4.6-255.27a21.26,21.26,0,0,1,23.92-15.79A18.77,18.77,0,0,1,504.34,54c-5.86-4.23-13-6.11-20-3.78-7.67,2.54-12.29,9.32-13.21,17.13A26,26,0,0,0,472,74.8a25.6,25.6,0,0,0,3.94,7.58c-7.27-4.38-10.35-13.23-8.4-21.32Zm30.93,8.44a7,7,0,1,1-7-7,7,7,0,0,1,7,7ZM511.63,105A44.5,44.5,0,0,1,481,110.68a42.43,42.43,0,0,1-26.29-16.31c9,8.11,20.29,13.23,32.63,12.83A43.46,43.46,0,0,0,522.4,87.41c4.3-6.71,6.1-14,6.76-21.88a59.8,59.8,0,0,0-.31-6.69,44.11,44.11,0,0,0-2.92-11.24,49.9,49.9,0,0,0-9.58-14.82,42.89,42.89,0,0,1,15.48,22.71,44.18,44.18,0,0,1-.93,25.78A45,45,0,0,1,511.63,105Zm7.66,95.72c2.14-6.95,4.09-14.49,4.07-21.81a111.28,111.28,0,0,0-1-11.68q-.66-5.91-1.3-11.83l-2.16-19.65-1-9.31a292.2,292.2,0,0,1,6.47,34.84c.85,6.36,2.09,13,1.66,19.42a69.15,69.15,0,0,1-4.2,18.44,85.89,85.89,0,0,1-8.56,17.52,123.52,123.52,0,0,0,6-15.91Zm22,120.16c-3.64,3.44-9.49,5.13-17.78,5.13-1.63,0-3.35-.06-5.17-.19-4.13-.29-8.28-.56-12.42-.81-17.78-1.07-26.84-7.66-26.92-19.58l-.05-7.06,2.79.09c6.66.23,13.48.49,20.26.8l2.54.11.06,7.22c0,2.08,3.6,2.71,6.59,2.88l3.59.21c3.47.21,4.54-.54,4.78-.77s.36-.34.35-1.16l-.16-14.88c0-.87-.24-1-.33-1a48.66,48.66,0,0,0-5.18-2.27c-6.07-2.19-12.52-4.47-19.11-6.76a86.22,86.22,0,0,1-9.46-3.57,12.14,12.14,0,0,1-5.25-4.5,13,13,0,0,1-1.68-6.8l-.13-17.44a16.43,16.43,0,0,1,1.1-6.2c8.71.09,18.86-.83,25.56-4.75a6.78,6.78,0,0,0,2.62-6.32h10c12.18,0,26.74,3.12,26.92,18l.14,11.46-2.77-.07L522,262.14l-2.6-.05-.11-10.28c0-2.62-4.68-2.66-6.2-2.68h-3.15c-3.79-.07-5.09.8-5.45,1.17a1.55,1.55,0,0,0-.4,1.22l.13,14.29c0,.79.21.9.27.93a51.21,51.21,0,0,0,5.19,2.17c6.45,2.16,12.91,4.37,19.13,6.54,4.23,1.56,7.33,2.81,9.25,3.74a15.44,15.44,0,0,1,5,3.7c1.43,1.67,2.15,4.34,2.19,8.16l.24,19c0,4.52-1.38,8.18-4.23,10.86Zm4.08-97.29c-.57-.42-1.17-.82-1.79-1.21.59-1.69,1.15-3.39,1.68-5.12h0c.41-1.35.8-2.72,1.18-4.09l.18-.69c.24-.9.46-1.82.68-2.73s.43-1.8.63-2.7a3.44,3.44,0,0,1,.16-.76,128.91,128.91,0,0,0,2.69-30.54v-.54A126.3,126.3,0,0,0,531.45,113a62.07,62.07,0,0,0,5.46-5.54A132.68,132.68,0,0,1,554.65,212a65.93,65.93,0,0,1-9.31,11.62ZM618,329.34c-3.3,3-8.2,4.42-14.85,4.42a57.42,57.42,0,0,1-7.41-.51q-6.5-.79-13-1.53c-17.63-2-26.64-8.93-26.79-20.55l-.79-59.76a15.47,15.47,0,0,1,4.29-11.53c4.33-4.39,11.61-6.52,22.25-6.52h13c12.18,0,26.75,3.35,27,19.29l.2,13.85-2.83-.12q-10-.42-20.1-.79l-2.54-.1-.18-12.33c0-.81,0-3-6.46-3.07l-4-.07c-3.28-.06-4.37.71-4.7,1a2,2,0,0,0-.47,1.55l.84,59.31c0,.9,0,3,5.67,3.59l5,.53c3.29.35,4.31-.33,4.54-.54s.42-.39.41-1.46l-.12-8.15,3,.29c6.76.65,13.55,1.35,20.18,2.06l2.36.25.13,8.62C622.69,322.4,621.13,326.5,618,329.34Zm65.17,17.33c-15.73-2.9-31.75-5.59-47.61-8l-2.24-.33-1.57-104.87,25.45.07,1.33,90.86c8.47,1.24,17,2.56,25.38,3.93l2.21.36.26,18.55ZM744,359.24c-16.31-3.73-32.93-7.23-49.4-10.41l-2.14-.41L691,233.68h2.72l49.82.2h2.64l.18,20-2.78-.08-27-.8.34,29.34c7.95.72,16,1.48,23.91,2.26l2.39.23.18,19.92-3-.38c-7.65-1-15.45-1.89-23.22-2.79l.37,32.62c9.11,1.68,18.31,3.45,27.4,5.28l2.13.43.18,20.11Zm68.66,10.23a16.76,16.76,0,0,1-10.51,3.17A39.16,39.16,0,0,1,792,371.1q-6-1.61-12.12-3.15c-17.11-4.45-25.84-14.88-26-31l-.08-9.4,3.19.59c6.67,1.22,13.37,2.48,19.93,3.75l2.15.42,0,9.13c0,2.47.81,5.49,6.86,6.87l3.51.81c1.74.4,3.08.36,3.68-.11s.87-1.59.86-3.22l0-22.59c0-1.62-.3-2.84-.83-3.33a48.07,48.07,0,0,0-5.09-3.91c-6.13-4-12.48-7.93-18.8-11.74a82.62,82.62,0,0,1-9.36-6,15.57,15.57,0,0,1-4.92-6.45,24.6,24.6,0,0,1-1.51-8.91l-.19-25.15c-.06-7.21,1.91-12.88,5.86-16.86,4.47-4.5,11.43-6.78,20.71-6.78h0l12.51.06h0c8.76,0,15.46,2.26,20,6.72s6.81,11.11,6.81,19.75V277l-2.89-.23q-10-.78-20-1.53l-2.47-.19V260.88c0-2.8-.76-5.42-6.21-5.6l-3.14-.11c-1.54,0-3.61.1-4.69,1.15a4.73,4.73,0,0,0-1.06,3.5l.12,21.16c0,2.09.52,2.75.74,2.94a52.39,52.39,0,0,0,5.08,3.54c6.37,3.65,12.75,7.44,19,11.27a97,97,0,0,1,9.14,6.44,18.91,18.91,0,0,1,4.7,5.82c1.18,2.29,1.75,6,1.76,11.36v29.44c0,8.37-2.27,14.32-6.63,17.68Z"/></g></svg>