<?xml version="1.0" encoding="utf-8"?>
<!-- Generator: Adobe Illustrator 26.0.1, SVG Export Plug-In . SVG Version: 6.00 Build 0)  -->
<svg version="1.1" id="Layer_1" xmlns="http://www.w3.org/2000/svg" xmlns:xlink="http://www.w3.org/1999/xlink" x="0px" y="0px"
	 viewBox="0 0 835.2 403.2" style="enable-background:new 0 0 835.2 403.2;" xml:space="preserve">
<style type="text/css">
	.st0{fill:#FFFFFF;}
</style>
<g id="Emblems">
	<polygon class="st0" points="424.7,372.8 419.1,358.9 413.5,372.8 398.5,373.9 410,383.5 406.4,398 419.1,390 431.8,398 
		428.1,383.5 439.6,373.9 	"/>
	<path class="st0" d="M251.8,379.1c-30.4,3.7-60.5,9.6-90.1,17.7c29.9-5.6,60.2-9,90.7-10.1h0.3c2.1-0.3,3.5-2.3,3.2-4.4
		C255.6,380.3,253.8,378.9,251.8,379.1L251.8,379.1z"/>
	<path class="st0" d="M582.1,382.4c-0.2,2.1,1.2,4,3.3,4.3h0.3c30.4,1.1,60.8,4.5,90.7,10.1c-29.5-8.1-59.7-14.1-90.1-17.7
		C584.2,378.8,582.3,380.3,582.1,382.4C582.1,382.4,582.1,382.4,582.1,382.4z"/>
	<polygon class="st0" points="284.5,361.6 279.7,361.6 275.7,376.2 275.7,361.6 270.5,361.6 270.5,394.9 275.7,394.9 275.7,380.4 
		280.6,394.9 285.9,394.9 279.9,378.2 	"/>
	<rect x="286.7" y="388.6" class="st0" width="5.4" height="6.3"/>
	<path class="st0" d="M316.2,375.6v-8c0-3.9-1.9-6-5.4-6h-8.9v33.3h5.1v-13.1h1.9l2.9,13.1h4.9l-3.1-13.7
		C315.4,380.3,316.2,378.5,316.2,375.6z M311.1,375.4c0,1.7-0.8,1.9-1.5,1.9h-2.5v-10.9h2.5c0.7,0,1.5,0.2,1.5,1.9V375.4z"/>
	<path class="st0" d="M328.6,361.6h-4.2c-3.7,0-5.6,2.1-5.6,6V389c0,3.9,2,5.9,5.7,5.9h4.1c3.7,0,5.6-2,5.6-5.9v-21.4
		C334.2,363.7,332.2,361.6,328.6,361.6z M329,388.7c0,1-0.4,1.5-1.3,1.5h-2.2c-1.1,0-1.5-0.5-1.5-1.5v-20.8c0-1,0.4-1.5,1.5-1.5h2
		c1.1,0,1.5,0.4,1.5,1.5L329,388.7z"/>
	<path class="st0" d="M348.7,377.8c1.6-0.5,2.6-1.9,2.5-3.6v-6.2c0-4.2-2.1-6.3-6.2-6.3h-7.8v33.3h9.1c3.5,0,5.3-1.8,5.3-5.2v-8.1
		C351.7,379.8,350.7,378.5,348.7,377.8z M342.4,366.4h2.2c0.7,0,1.5,0.2,1.5,1.9v5.1c0,1.4-0.6,2-2.1,2h-1.6L342.4,366.4z
		 M346.5,389.2c0,0.5-0.1,1-1.3,1h-2.9v-10.1h2c1.5,0,2.2,0.6,2.2,1.9L346.5,389.2z"/>
	<polygon class="st0" points="354.5,394.9 366.1,394.9 366.1,390.2 359.6,390.2 359.6,380.2 365.4,380.2 365.4,375.5 359.6,375.5 
		359.6,366.4 366.1,366.4 366.1,361.6 354.5,361.6 	"/>
	<path class="st0" d="M382.7,375.6v-8c0-3.9-1.9-6-5.4-6h-8.9v33.3h5.1v-13.1h1.9l2.9,13.1h4.9l-3.1-13.7
		C381.8,380.3,382.7,378.5,382.7,375.6z M377.5,375.4c0,1.7-0.8,1.9-1.5,1.9h-2.5v-10.9h2.5c0.7,0,1.5,0.2,1.5,1.9L377.5,375.4z"/>
	<polygon class="st0" points="454.1,394.9 465.7,394.9 465.7,390.2 459.3,390.2 459.3,380.2 465,380.2 465,375.5 459.3,375.5 
		459.3,366.4 465.7,366.4 465.7,361.6 454.1,361.6 	"/>
	<path class="st0" d="M475.9,361.6h-2.7c-3.7,0-5.6,2.1-5.6,6v6.6c0,0.7,0.1,1.5,0.3,2.2c0.2,0.6,0.5,1.1,1,1.5
		c0.6,0.5,1.3,0.9,2,1.3l4.1,2.3c0.4,0.2,0.8,0.5,1.1,0.8c0.1,0.1,0.2,0.3,0.2,0.9v5.5c0,1-0.4,1.5-1.3,1.5h-0.8
		c-1.1,0-1.5-0.5-1.5-1.5v-2.2h-5.1v2c0,4.2,1.9,6.4,5.6,6.4h2.7c3.7,0,5.6-2,5.6-5.9v-6.9c0.1-0.9-0.1-1.7-0.4-2.5
		c-0.2-0.5-0.6-0.9-1-1.2c-0.6-0.5-1.3-0.9-2-1.2l-4-2.2c-0.4-0.2-0.8-0.5-1.1-0.8c-0.1-0.1-0.2-0.3-0.2-0.9v-5.4
		c0-1.1,0.4-1.5,1.5-1.5h0.7c1,0,1.5,0.5,1.5,1.5v3.2h5.1v-3.6C481.5,363.7,479.6,361.6,475.9,361.6z"/>
	<polygon class="st0" points="482.7,366.4 486.9,366.4 486.9,394.9 492.1,394.9 492.1,366.4 496.2,366.4 496.2,361.6 482.7,361.6 	
		"/>
	<path class="st0" d="M512.6,361.6h-2.3c-3.7,0-5.6,2.1-5.6,6v4h5.1v-3.8c0-1,0.4-1.5,1.5-1.5h0.3c1,0,1.5,0.4,1.5,1.5v6
		c0,0.3,0,0.5,0,0.7c0,0.1-0.1,0.3-0.1,0.4c-0.1,0.2-0.2,0.4-0.3,0.5c-0.2,0.3-0.5,0.6-0.8,0.8l-4.4,4.2c-0.4,0.4-0.9,0.9-1.2,1.4
		c-0.3,0.3-0.4,0.7-0.5,1.1c-0.1,0.5-0.2,1-0.1,1.5v10.4H518v-4.7h-7.3v-4.3c0-0.4,0-0.6,0-0.8c0-0.2,0.1-0.3,0.1-0.5
		c0.3-0.4,0.6-0.8,1-1l4.8-4.6c0.6-0.5,1.1-1.1,1.4-1.8c0.2-0.6,0.3-1.1,0.3-1.7v-7.8C518.2,363.7,516.3,361.6,512.6,361.6z"/>
	<path class="st0" d="M530.5,361.6h-3c-3.7,0-5.6,2.1-5.6,6V389c0,3.9,1.9,6,5.6,6h3c3.7,0,5.6-2.1,5.6-6v-21.4
		C536.1,363.7,534.1,361.6,530.5,361.6z M530.9,388.7c0,1-0.4,1.5-1.3,1.5h-1.1c-1.1,0-1.5-0.5-1.5-1.5v-20.8c0-1,0.4-1.5,1.3-1.5
		h1.1c1.1,0,1.5,0.4,1.5,1.5V388.7z"/>
	<path class="st0" d="M546.8,361.6h-2.3c-3.7,0-5.6,2.1-5.6,6v4h5.2v-3.8c0-1,0.4-1.5,1.5-1.5h0.3c1,0,1.5,0.4,1.5,1.5v6
		c0,0.2,0,0.5,0,0.7c0,0.1,0,0.3-0.1,0.4c-0.1,0.2-0.2,0.4-0.3,0.5c-0.2,0.2-0.5,0.5-0.8,0.8l-4.4,4.2c-0.5,0.4-0.9,0.9-1.2,1.4
		c-0.3,0.3-0.4,0.7-0.5,1.1c-0.1,0.5-0.2,1-0.2,1.5v10.4h12.5v-4.7h-7.3v-4.3c0-0.4,0-0.6,0-0.8c0-0.2,0.1-0.3,0.1-0.5
		c0.3-0.4,0.6-0.8,1-1l4.8-4.6c0.6-0.5,1.1-1.1,1.4-1.8c0.2-0.6,0.3-1.1,0.3-1.7v-7.8C552.4,363.7,550.5,361.6,546.8,361.6z"/>
	<path class="st0" d="M559.5,361.6l-0.1,0.2c-0.5,0.9-1.1,1.7-1.8,2.3c-0.8,0.7-1.7,1.3-2.7,1.7l-0.4,0.1l1.2,3.7l2.6-0.8v26h5.1
		v-31.6l-3.1-1.6L559.5,361.6z"/>
	<polygon class="st0" points="249.1,104.5 261.6,96.6 274.2,104.5 270.5,90.1 281.9,80.6 267.1,79.6 261.6,65.9 256.1,79.6 
		241.3,80.6 252.7,90.1 	"/>
	<polygon class="st0" points="314,41.3 322.3,36.2 330.5,41.3 328.2,31.9 335.6,25.7 325.9,25 322.3,16 318.7,25 309,25.7 
		316.4,31.9 	"/>
	<polygon class="st0" points="280.4,64.9 289.8,59 299.3,64.9 296.6,54.1 305.2,46.9 294,46.2 289.8,35.8 285.7,46.2 274.5,46.9 
		283.1,54.1 	"/>
	<path class="st0" d="M668.8,213.4c18.2-0.1,22.8-12.5,22.7-13.8s-6.5,2-28-0.5c-11.6-1.4-19.5-2.5-24.4-3.3
		c-0.5,2.2-2.5,5.8-5.7,8.8c-1.5,1.4-3.2,2.7-5,3.7C649.2,211.7,657.7,213.5,668.8,213.4z"/>
	<path class="st0" d="M785,127.9c0.2-3.3-11,5.4-40.8,6.1c-4.5,0.1-10,0.1-15.9,0.1c-4.5,6.3-13.2,13.4-30.3,17.1
		c0.6,0.6,0.9,1.5,0.9,2.4c0,0.1,0,0.2,0,0.3c25,1,46.6,0.3,56.3-1.8C783.1,145.9,784.8,130,785,127.9z"/>
	<path class="st0" d="M753.2,90.4c0.3,0.1,0.6,0.3,0.9,0.5c1,0.8,1.6,2.1,1.5,3.4c-0.3,3.4-1.3,6.7-3,9.7c19.3-0.6,32.5-2,42.8-5.7
		C824.3,88,824,70.8,823.9,68.6c-0.2-3.5-10.5,6.1-42.1,10.9c-5.6,0.8-11.6,1.5-17.5,2C761.2,85.1,757.4,88.1,753.2,90.4z"/>
	<path class="st0" d="M660.8,93.8c-1.1,1.2-2.3,2.4-3.5,3.6c41.2,1.8,63.9,1,80.2-3.9c29.9-9,30.6-26.4,30.6-28.7
		c0-3.6-11.5,6.8-43.9,9.9c-16.3,1.6-36.1,1.6-47.5,1.4C673.1,80.4,668,86,660.8,93.8z"/>
	<path class="st0" d="M592,145.9c43,4.9,88.6,5.7,104.7,2.3c30.6-6.4,32.7-23.8,32.9-26c0.3-3.6-12.1,5.8-44.6,6.1
		c-16.8,0.2-47-0.8-64.5-1.5C610.5,134,600.4,140.6,592,145.9z"/>
	<path class="st0" d="M752.3,94.2c0.2-3.6-11.9,6.2-44.3,7.8c-17,0.8-41.2-0.2-54.4-0.9c-8.8,7.9-18.1,15.3-27.7,22.1
		c41.3,3.2,78.7,2.2,94.5-1.8C750.7,113.8,752.2,96.4,752.3,94.2z"/>
	<path class="st0" d="M586.6,149.4c-6.2,3.9-6.1,10.4-5.3,20.1l0.1,0.8c0,0.1,0,0.3,0,0.4c33.8,4.5,70.4,3.1,82.9,1.4
		c25.4-3.4,31.3-16.6,31.4-18.4s-24.1,1.3-50.8,0.5c-20.3-0.6-41.6-4.4-54.5-7.1L586.6,149.4z"/>
	<path class="st0" d="M639.5,190.6c20.9-1.7,24.7-13.1,24.7-14.5s-18.9,1-40,0.4c-15.3-0.5-32-2.4-42.8-3.9
		c0.3,4.4,0.5,9.3,0.3,14.2C606.2,190.4,630.2,191.4,639.5,190.6z"/>
	<path class="st0" d="M609,209.4c21,0.9,27-13.1,27-14.6s-7.6,1.9-32.2-2.2c-9.4-1.6-16.7-2.9-22.1-4c-0.2,5.5-1,11-2.4,16.3
		C595.8,208.4,597.5,208.9,609,209.4z"/>
	<path class="st0" d="M807,100.3c0.1-3.6-11.8,6.4-44.2,8.3c-4.2,0.2-8.8,0.4-13.6,0.5c-3.4,4.1-8.6,8.2-16.6,11.6
		c0.2,0.6,0.3,1.2,0.2,1.8c-0.3,2.6-1,5.1-2.1,7.4c19.7,0.8,35.5,0.4,44.7-2C805.7,120,807,102.5,807,100.3z"/>
	<path class="st0" d="M752.4,158.1c0-1.8-23,1.5-48.6,1.1c-2.3,0-4.7-0.1-7-0.2c-3.4,5.4-11.6,13.1-29.5,16.1
		c0.1,0.4,0.2,0.8,0.2,1.2c0,0.5-0.1,1.1-0.3,1.6c24.2,1.1,46.3-0.2,55.4-1.6C746.9,172.5,752.4,159.8,752.4,158.1z"/>
	<path class="st0" d="M718.5,181c0-1.4-18.1,1.2-38.2,0.8c-4.8-0.1-9.8-0.3-14.6-0.6l0,0c-0.2,0.3-0.3,0.5-0.5,0.8l-0.1,0.1
		c-0.1,0.2-0.3,0.4-0.5,0.6l-0.2,0.2l-0.5,0.6c-0.1,0.1-0.1,0.1-0.2,0.2s-0.3,0.4-0.5,0.6l-0.2,0.2c-0.2,0.2-0.5,0.5-0.7,0.7
		l-0.1,0.1c-0.6,0.6-1.3,1.1-1.9,1.6l-0.1,0.1c-0.3,0.2-0.6,0.5-1,0.7l-0.2,0.1c-0.3,0.2-0.7,0.4-1,0.6l-0.2,0.1
		c-0.4,0.2-0.8,0.4-1.2,0.7l-0.1,0.1c-1.5,0.8-3,1.5-4.6,2h-0.1c-0.5,0.2-1,0.4-1.6,0.5l-0.3,0.1c-0.5,0.2-1.1,0.3-1.7,0.4l-0.2,0.1
		c-0.6,0.2-1.3,0.3-2,0.4l0,0c21.1,2.5,40.8,3,49,2.2C715,193.3,718.5,182.4,718.5,181z"/>
	<path class="st0" d="M169.4,213.4c11.1,0.1,19.5-1.7,40.3-5.1c-1.8-1-3.4-2.3-4.9-3.7c-3.1-3-5.2-6.5-5.7-8.8
		c-4.9,0.8-12.8,1.9-24.4,3.3c-21.5,2.5-27.9-0.8-28,0.5S151.2,213.2,169.4,213.4z"/>
	<path class="st0" d="M83,152.1c9.7,2.2,31.4,2.8,56.3,1.8c0-0.1,0-0.2,0-0.3c0-0.9,0.4-1.7,1-2.4c-17.2-3.7-25.9-10.8-30.3-17.1
		c-6,0-11.5,0-15.9-0.1c-29.8-0.7-41-9.4-40.8-6.1C53.3,130,55.1,145.9,83,152.1z"/>
	<path class="st0" d="M42.7,98.3c10.3,3.7,23.5,5.1,42.8,5.7c-1.7-3-2.7-6.3-3-9.7C82.4,93,83,91.7,84,90.9c0.3-0.2,0.6-0.4,0.9-0.5
		c-4.2-2.3-8-5.4-11.2-9c-5.8-0.5-11.8-1.2-17.5-2c-31.5-4.7-41.8-14.3-42-10.8C14.1,70.8,13.9,88,42.7,98.3z"/>
	<path class="st0" d="M100.7,93.5c16.3,4.9,39,5.8,80.2,3.9c-1.2-1.2-2.4-2.4-3.5-3.6c-7.1-7.8-12.2-13.4-15.8-17.7
		c-11.4,0.2-31.2,0.2-47.5-1.4c-32.4-3.1-43.9-13.5-43.9-9.9C70.1,67.1,70.8,84.6,100.7,93.5z"/>
	<path class="st0" d="M153.1,128.4c-32.5-0.3-44.9-9.7-44.6-6.1c0.2,2.2,2.3,19.6,32.9,26c16.1,3.4,61.7,2.6,104.7-2.3
		c-8.3-5.3-18.4-11.9-28.5-19C200.2,127.6,169.9,128.6,153.1,128.4z"/>
	<path class="st0" d="M130.1,101.9c-32.5-1.5-44.5-11.3-44.3-7.8c0.1,2.3,1.6,19.7,31.9,27.2c15.8,3.9,53.3,5,94.5,1.8
		c-9.7-6.8-18.9-14.2-27.7-22.1C171.4,101.7,147.1,102.7,130.1,101.9z"/>
	<path class="st0" d="M251.6,149.4l-3.8-2.4c-12.9,2.7-34.2,6.5-54.5,7.1c-26.7,0.8-50.8-2.4-50.8-0.5s5.9,15,31.4,18.4
		c12.6,1.7,49.1,3.1,82.9-1.4v-0.4l0.1-0.8C257.7,159.8,257.8,153.2,251.6,149.4z"/>
	<path class="st0" d="M213.9,176.5c-21,0.6-40-1.9-40-0.4s3.8,12.8,24.7,14.5c9.4,0.8,33.4-0.2,57.8-3.9c-0.2-4.9,0-9.8,0.3-14.2
		C245.9,174,229.2,176,213.9,176.5z"/>
	<path class="st0" d="M229.1,209.4c11.6-0.5,13.2-0.9,29.7-4.5c-1.4-5.3-2.2-10.8-2.4-16.3c-5.4,1.1-12.7,2.4-22.1,4
		c-24.6,4.1-32.2,0.7-32.2,2.2S208.2,210.3,229.1,209.4z"/>
	<path class="st0" d="M88.9,109.1c-4.8-0.1-9.4-0.2-13.6-0.5c-32.5-1.9-44.4-11.9-44.3-8.3c0.1,2.3,1.4,19.7,31.6,27.6
		c9.1,2.4,25,2.8,44.7,2c-1.1-2.3-1.8-4.8-2.1-7.4c-0.1-0.6,0-1.2,0.2-1.8C97.6,117.3,92.3,113.1,88.9,109.1z"/>
	<path class="st0" d="M115.6,176.1c9,1.3,31.1,2.7,55.4,1.6c-0.1-0.5-0.2-1-0.2-1.6c0-0.4,0.1-0.8,0.2-1.2
		c-17.9-3-26.2-10.7-29.6-16.1c-2.3,0.1-4.7,0.2-7,0.2c-25.6,0.5-48.6-2.9-48.6-1.1S91.3,172.5,115.6,176.1z"/>
	<path class="st0" d="M143.1,195.2c8.1,0.8,27.9,0.3,49-2.2l0,0c-0.7-0.1-1.3-0.3-2-0.4l-0.2-0.1c-0.6-0.1-1.1-0.3-1.6-0.4l-0.2,0
		c-0.6-0.2-1.1-0.3-1.6-0.5h-0.1c-1.6-0.5-3.1-1.2-4.6-2l-0.1-0.1c-0.4-0.2-0.8-0.4-1.2-0.7l-0.2-0.1c-0.3-0.2-0.7-0.4-1-0.6
		l-0.2-0.1c-0.3-0.2-0.7-0.5-1-0.7l-0.1-0.1c-0.7-0.5-1.3-1.1-1.9-1.6l-0.1-0.1c-0.2-0.2-0.5-0.5-0.7-0.7l-0.2-0.2l-0.5-0.6
		l-0.2-0.2c-0.2-0.2-0.3-0.4-0.5-0.6c-0.1-0.1-0.1-0.1-0.2-0.2c-0.2-0.2-0.3-0.4-0.5-0.6L173,182c-0.2-0.3-0.3-0.5-0.5-0.8l0,0
		c-4.8,0.3-9.8,0.6-14.6,0.6c-20.1,0.4-38.2-2.3-38.2-0.8S123.1,193.3,143.1,195.2z"/>
	<path class="st0" d="M380.8,188.6c5.9,1.3,9.4-0.9,14.1,2.7c4.8,4,10.3,7.1,16.2,9.2c14,5.3,29,4.4,38.1-2.4
		c-13.2,4.1-26.5,0.3-34.8-3c-6.3-2.5-21.1-9.9-32.4-28.7c0.4,3.9,1.4,7.7,2.9,11.3C386.3,181.2,383.8,186.6,380.8,188.6z"/>
	<path class="st0" d="M273.5,305.2l-3.1,0.2l-0.1,7.9l3-0.3c1.9-0.2,1.9-0.9,1.9-1.3l0.1-5.8c0-0.4-0.1-0.5-0.2-0.6
		S274.5,305.1,273.5,305.2z"/>
	<path class="st0" d="M274.6,272.1h-0.3l-2.8,0.1c-1.8,0.1-1.8,0.6-1.8,0.8l-0.2,17.4c0,0.2,0,0.2,0.1,0.3s0.4,0.3,1.6,0.2l3.1-0.2
		c1.5-0.1,1.6-0.6,1.6-0.8l0.2-17.2c0-0.1,0-0.2-0.1-0.3C275.9,272.3,275.6,272.1,274.6,272.1z"/>
	<path class="st0" d="M832,320.2c0-7.6-1-12.8-3.2-17c-2-3.7-4.6-6.9-7.9-9.6c-2.6-2-5.2-4-8-5.7l2.5,0.2
		c8.4,0.7,15.8-5.5,16.5-13.9c0-0.4,0.1-0.9,0.1-1.3v-13.2c0-24-14.6-38.6-39-39.1l-12.6-0.3c-9.7-0.2-17.8,1.7-24.2,5.6
		c-2.8-4-7.3-6.4-12.1-6.5c-16.4-0.4-33.2-0.7-49.8-1h-0.3c-8.4,0-15.3,6.9-15.3,15.3c0,0.1,0,0.1,0,0.2l0.9,81
		c-2.8-0.4-5.7-0.8-8.5-1.2l-1-80.8c0-4.1-1.8-8.1-4.8-10.9c2.2-1.5,3.3-2.8,3.4-3.3c0.2-1.4-8.5-0.1-33.7-4.4
		c-5.8-1-10.7-1.9-14.7-2.8c-1.1,0.3-2.2,0.5-3.3,0.6c0,0.2,0,0.3,0,0.5c-0.2,1.6-1.8,4.2-4.5,6.8c-1.2-0.4-2.4-0.7-3.7-1.1
		c3.3-2.8,4.8-5.6,4.9-6.2c0.2-1.5-8,1.2-32-4.5l-3.1-0.7c-0.3,1-0.7,2-1.1,2.9c-1.2,2.6-2.7,5-4.5,7.2c-1.7,0.2-3.3,0.5-4.9,0.8
		c0.1-0.1,0.1-0.3,0.2-0.5c2.6-2.5,4.7-5.5,6.3-8.8c5-11.4,4.3-29.3,3.6-38.2s-1.8-18.6,6.8-23.9s54.3-33.9,73.6-55
		s25-27.9,21.1-28.9c0,0-44.6,34.3-82.9,49.3c-17.2,6.7-27.2,12.2-32.9,17.1c-4.5-12.5-10.6-24.4-18.2-35.3
		c3.9-8.3,5.9-17.3,5.9-26.4c0-0.5,0-1.1,0-1.6C550.5,31.4,522,4.4,487.7,5.3S426.3,34.7,427.2,69s29.4,61.4,63.7,60.5
		c7.3-0.2,14.5-1.7,21.3-4.4c0,3.2,0,6.3,0,9.1c0.1,10.3,3.9,42.4,0.2,54.8c-5.1,16.7-6.8,23.9-11.7,29.4c-5.5,6.1-13.2,4-21.6,0.7
		c2.5,3.3,4.9,6.7,7.6,8.6s2.9,5.4-1.7,6.4c-4.1,0.9-12,0.1-18.5-2.8c-7.4-3.2-17.6-12.1-30.4-18.7c5,5.2,16.7,17.8,10.3,20.1
		c-6.8,2.5-24.2,1.3-36.7-4.2c-20.4-9-38.5-24.8-36-37.1c-12.1,3.6-24-7-25-10.4c-1.3-4.3,15.9-8.2,23.1-18.8
		c0.3-0.4-7.3,3.8-12.4,5.2s-14.6,1.5-24.1,1.1c-15.9-0.7-22.9,6.5-29.1,10.1c-3.2,1.9-6.6,3.4-10.2,4.6c0-1-0.1-2-0.1-3
		c0-21.8,5.9-43.2,17-62c7.3,0.9,16.3,0.2,24.7-1.5l2.2-0.4c17-3.3,31.6,4.8,35.6,7.3c2.9,1.8,5.6,3.9,8.1,6.2
		c4.6,4.3,8.8,9,12.4,14.1c0.6,1.6,0.6,3.3,0.2,4.9c-2.5,7.3-13.8,11.5-13.8,11.5c22.6-3,29.8-10.2,42.1-8c3.6,0.9,7.1,2.5,10.1,4.6
		c1.5,1,2.9,2.2,4.3,3.4c4.6,4.3,8.5,9.2,11.5,14.7l2.9,5.1c3.5,7.4,8.2,17.8,14.7,24.7c-3.9-7.3-6.1-10.9-7.9-20.1
		c3.5,9.3,15.1,19.9,22.1,24.3c-6.4-6.3-13.9-15.7-17.9-28c-0.9-2.9-0.5-9-0.2-11.7c0.4-3.1,7-18.7,9.6-20c3.6-1.9,4.8,10.5,15,20.9
		c-4.9-10.2-7.5-19.3-8-25c-0.3-3.6,0.1-9.5,1-15.9c-36-2.3-63.3-33.4-61-69.4c0.2-3.3,0.7-6.7,1.4-9.9c-1.1,0-2.1-0.1-3.2-0.1
		c-57.6-0.1-108.6,37.4-125.6,92.5c-0.3,0.9-0.5,1.8-0.8,2.8c-0.1,0.3-0.2,0.7-0.3,1c-0.3,1.1-0.6,2.2-0.9,3.3
		c0,0.1-0.1,0.3-0.1,0.4c-4.8,20.2-4.7,41.2,0.4,61.3c0.5,2,1.1,4,1.7,6c-1,0.3-1.9,0.8-2.8,1.3c-1.3-1-2.8-1.8-4.3-2.3
		c-0.6-0.9-1.2-1.7-1.8-2.6c-2.8-10.9-4.2-22.2-4.2-33.4c0-75.9,62.2-137.7,138.7-137.7c1.8,0,3.5,0.1,5.3,0.1
		c1.8-5.1,4.2-9.9,7.1-14.4c-4.1-0.3-8.2-0.5-12.4-0.5c-64.8,0-122.7,40.5-144.7,101.5c-5.7-5-15.7-10.4-32.9-17.1
		c-38.2-15-82.8-49.3-82.8-49.3c-3.9,1.1,1.8,7.9,21.1,28.9s65,49.6,73.6,55s7.5,15,6.8,23.9s-1.4,26.8,3.6,38.2
		c1.1,2.4,2.6,4.7,4.4,6.7h-1.5c-0.8,0-1.6,0.1-2.4,0.2c-1.3-1.7-2.5-3.6-3.4-5.6c-0.4-0.9-0.8-1.9-1.1-2.9l-3.1,0.7
		c-24,5.7-32.2,3-32,4.5c0.1,0.5,1.1,2.5,3.4,4.8h-2.1c-0.7,0-1.4,0.1-2.1,0.2c-1.2-1.3-2-2.9-2.4-4.5c0-0.2,0-0.3,0-0.5
		c-1.1-0.2-2.2-0.4-3.3-0.6c-4,0.8-8.9,1.8-14.7,2.8c-9.9,1.8-20,2.9-30.1,3.5l-7,0.1c-2,0-3.9,0.4-5.8,1.2c-1.8-0.7-3.6-1-5.5-1
		h-0.3l-19.9,0.4c-6.7,0.1-12.6,4.6-14.4,11.1c0,0,0,0.1,0,0.2c-2-6.5-8.1-10.8-14.9-10.7l-19.9,0.4c-3.7,0.1-7.2,1.5-9.9,4
		c-5.8-2.3-12.6-3.4-20.4-3.3l-13.8,0.3c-23.9,0.5-38.2,15.1-38.2,39.1l-0.2,89.4c0,12.4,3.8,21.7,11.3,27.6c5.1,4,11.3,6,18.7,6
		c3.9,0,7.9-0.5,11.7-1.5c12.8-3,25.7-5.9,38.6-8.6c7-1.5,12.1-7.6,12.1-14.8l0,0c2.8,6.6,9.9,10.3,16.9,9
		c6.6-1.3,13.2-2.5,19.8-3.7c7.2-1.3,12.5-7.5,12.6-14.9l0.4-39.6c1.8-5.3,3.5-10.6,5.3-15.8L150,342c-0.1,8.4,6.7,15.3,15.1,15.4
		c0.1,0,0.1,0,0.2,0c0.8,0,1.6-0.1,2.4-0.2c6.6-1,13.3-2,19.9-3c7.6-1.1,13.2-7.7,13.1-15.4l-0.1-5.3l11.1-1.2v0.8
		c-0.4,8.4,6.2,15.6,14.6,15.9c0.8,0,1.6,0,2.4-0.1c6.6-0.8,13.4-1.5,20-2.2c2.4-0.2,4.7-1.1,6.8-2.4c2.4,1.4,5,2.1,7.8,2.1
		c0.5,0,1,0,1.5-0.1l6-0.6c1.3-0.1,2.5-0.4,3.7-0.8c1.3,0.2,2.5,0.3,3.8,0.1l5.7-0.5c3-0.3,5.9-1.4,8.3-3.4c1.7,0.7,3.6,1,5.5,1
		c0.4,0,0.7,0,1.1,0c6.7-0.5,13.5-0.9,20-1.3c8.2-0.5,14.6-7.4,14.3-15.6c0-0.7,0-1.4,0-2.1c3.8-0.2,7.5-0.3,11.3-0.5
		c0,0.1,0,0.2,0,0.3c-0.4,8.4,6.2,15.5,14.6,15.9c0.3,0,0.7,0,1,0c6.7-0.2,13.4-0.4,20.1-0.6c6-0.1,11.4-3.8,13.7-9.3
		c5.9,5.1,15,8.8,29.2,8.9c5.6,0,11.4,0.1,16.9,0.1h1.3c13.4,0,23.2-3.3,30-10c0.5-0.5,1-1,1.4-1.5c5.4,6.9,15,12.8,32.4,13.7
		c4.1,0.2,8.2,0.5,12.3,0.7c1.8,0.1,3.5,0.2,5.1,0.2c11.8,0,20.7-2.9,26.9-8.8l0.4-0.4c1.6,2,3.4,3.8,5.5,5.3
		c6.4,4.9,14.9,7.8,25.9,8.9c4.3,0.4,8.6,0.9,12.9,1.4c2.6,0.3,5.3,0.5,7.9,0.5c7.9,0,14.4-1.6,19.7-4.8c2.1,4.9,6.7,8.4,12,9.1
		c15.7,2.1,31.6,4.5,47.3,7c0.8,0.1,1.6,0.2,2.5,0.2c1.1,0,2.3-0.1,3.4-0.4c1.7,1.1,3.5,1.8,5.5,2.1c16.4,2.8,32.9,5.9,49.1,9.2
		c1,0.2,2,0.3,3,0.3c3.5,0,7-1.2,9.7-3.5l0.2-0.2c5.8,5.2,13.4,9,22.7,11.1c4,0.9,8.1,1.9,12,2.8c4,1,8.2,1.5,12.3,1.6
		c7.5,0,13.9-2,19.1-6.1c7.5-5.9,11.3-15.1,11.3-27.3L832,320.2z M342.2,108c4.8-0.6,9.8-0.5,14.6,0.1c5.4,0.8,10.7,2.3,15.7,4.5
		c9.9,4.2,18.2,11.1,25.3,19.1c3.4,3.8,6.5,7.9,9.3,12.1c5.7-1.6,11.8-1.9,17.6-0.8c7.7,1.6,14.8,5.2,20.5,10.5
		c2.2,2,4.3,4.2,6.2,6.6c1.8-3.3,3.8-6.4,5.8-9.6c2.2-3.3,4.6-6.3,7.3-9.1c2.6-2.7,6-5.3,7.5-8.8c-0.3,0.9-0.5,1.3-0.5,1.2
		c-1.2,2.6-3.3,4.9-5.1,7.1c-2.2,2.7-4.2,5.6-6,8.6c-3.4,5.9-6.2,12.1-8.4,18.6c-5.7-8.6-13.5-16.3-23.5-19.7
		c-5.9-2-12.1-2.4-18.2-1.1c-1.2,0.2-2.4,0.5-3.6,0.9c-0.2,0.1-1.4,0.6-1.6,0.5s-0.5-0.9-0.7-1.1c-1.4-2.3-2.9-4.5-4.5-6.7
		c-3.1-4.3-6.5-8.3-10.2-12c-7.6-7.7-17-13.3-27.5-16.2c-6.1-1.7-12.4-2.3-18.6-1.8c-0.8,0.2-1.6,0.3-2.5,0.3
		c-0.5-0.2-0.3-0.2-0.7-0.8c-0.7-1.2-1.4-2.4-2.3-3.5c-1.9-2.2-4-4.3-6.2-6.2C335.7,102.5,339.4,104.8,342.2,108z M324.8,101.6
		c0.2,0.2,0.5,0.3,0.7,0.4c1.1,0.6,2.2,1.4,3.1,2.2c0.9,0.8,1.9,1.7,2.8,2.7c0.6,5-7.7,9.4-18.4,11.1
		C316.5,112.2,320.5,106.7,324.8,101.6L324.8,101.6z M83.6,273.7l-2.5,0.2l-20,1.4l-2.9,0.2l0.1-14.2c0-2.4-0.5-4.1-1.4-5
		s-2.3-1.2-4.3-1.2l-5,0.2c-3.2,0.1-6.2,1.1-6.2,7.3l-0.2,81.4c0,2.4,0.5,4.1,1.3,4.8s2.7,0.5,4,0.2c3.8-0.9,7.6-1.7,11.4-2.6
		l0.1-25.9l-7.2,1.2l-3.1,0.5l0.1-21.2l2.3-0.3c10-1.4,20.2-2.7,30.4-3.9l3-0.4l-0.5,64.8l-2,0.5c-12.9,3-26,6.3-38.8,9.7
		c-3,0.9-6.2,1.3-9.4,1.4c-3.6,0.2-7.2-0.9-10.2-3c-4.4-3.4-6.6-9.4-6.6-18v-91.2c0-8.6,2.2-15.2,6.6-19.7s10.9-6.8,19.3-6.8l0,0
		l13.8-0.1l0,0c10,0,17.5,2.4,22.1,7.1c4,4,6,9.7,5.9,16.8L83.6,273.7z M157.6,237.2c-8.5,23-17,46.7-25,70.4l-0.5,42.9l-2.1,0.4
		c-6.6,1.3-13.3,2.7-19.9,4.1l-3.3,0.7l0.5-45.5c-7.9-23.4-15.9-47.9-23.8-72.8l-1.1-3.5l25.5-0.1l0.6,1.9c4,14,8.1,28,12.2,41.6
		c3.9-14,8-28,12-41.7l0.6-1.9l25.7-0.1L157.6,237.2z M212.4,225.2c-0.4,0.8-0.7,1.6-1,2.4c-1.5,4.6-2.9,9.1-4.4,13.7
		c-1.2-4.2-2.5-8.4-3.7-12.7c-0.3-0.9-0.6-1.8-1-2.6C205.2,225.8,208.7,225.5,212.4,225.2L212.4,225.2z M249.6,332l-2.3,0.3
		c-6.7,0.8-13.4,1.6-20.1,2.5l-3.2,0.4l2.3-47.2c-3.3,9.7-6.5,19.4-9.7,29l-0.5,1.6l-1.7,0.2c-5.1,0.6-10.3,1.2-15.5,1.9l-2.2,0.3
		l-0.6-2.1c-2.9-9.3-5.9-18.8-8.8-28.3l0.8,49.9l-2.3,0.4c-6.6,1.1-13.4,2.2-20,3.4l-3.2,0.6l1.5-111.2l26.8-0.1l0.6,1.9
		c5,16.8,10.1,33.6,15.2,50.1c5.5-16.7,11.2-33.6,16.9-50.3l0.6-1.8l26.8-0.1L249.6,332z M265.8,234h16.7l-0.1,5.1h-8.9l-0.1,6.4
		l7.9-0.1l-0.1,5.1l-7.9,0.1l-0.2,12.2l-7.8,0.2L265.8,234z M282.5,328l-5.7,0.5l-0.7,0.1l-0.2-0.6c-1.2-3.3-2.4-6.6-3.6-9.9
		l-2.1,0.2l-0.1,10.9l-0.8,0.1l-6,0.6l-1,0.1l0.4-29.1l0.8-0.1c3.9-0.3,7.9-0.6,11.8-0.9c3.1-0.2,5.2,0.3,6.5,1.5
		c0.9,0.9,1.4,2.2,1.3,3.5l-0.1,6.6c0,2.3-1.3,4.3-3.4,5.2c1.3,3.3,2.5,6.6,3.8,9.9l0.4,1.1L282.5,328z M283.6,289.9
		c0,3.6-2.8,5.5-8.2,5.9l-5.6,0.4c-0.5,0-1,0-1.4,0c-2.5,0-4.3-0.5-5.4-1.6c-0.9-0.9-1.4-2.2-1.3-3.5l0.2-18c0-2.5,1.5-5.6,8.1-5.9
		l5.8-0.2c3.2-0.1,5.5,0.5,6.8,1.8c0.9,0.9,1.4,2.2,1.3,3.5L283.6,289.9z M322.7,185.5c12.2-3.8,18.3,8.2,18.2,14.3
		c-0.1,4-14.6,12.1-34,16.5h-3.3c-3.5-7.6-5.8-15.7-6.9-24C306.1,190.3,314.3,188.1,322.7,185.5L322.7,185.5z M382.5,322.8l-2.6,0.1
		c-6.7,0.2-13.5,0.4-20.2,0.7l-2.9,0.1l0.1-2.9c0.6-13,1.2-26,1.7-39c-3.2,8.4-6.3,16.8-9.5,25.2l-0.6,1.6l-1.8,0.1
		c-5.1,0.2-10.4,0.4-15.6,0.7l-2,0.1l-0.7-1.8c-3.1-8.4-6.1-16.7-9.1-24.9c0.3,13.5,0.7,27,1.1,40.4l0.1,2.6l-2.6,0.2
		c-6.7,0.5-13.5,1-20.2,1.5l-2.9,0.2l1-84.3h0.2c-0.1-0.1-0.1-0.3-0.2-0.5l0.1-9.5h26.7l0.6,1.8c5,14.2,10.3,28.8,15.7,43.7
		c5-13.3,10.3-27.4,16.5-43.8l0.6-1.7h24.3c0.8,0.5,1.6,1,2.5,1.4L382.5,322.8z M462.9,316.3c-4.2,4.2-11.2,6.2-21.3,6.2h-1.3
		c-5.6-0.1-11.4-0.1-17.1-0.2c-17.9,0-27-6.3-26.9-18.6l0.1-63.1c8.2,2.8,16.8,4.6,25.5,5.2v58.1c0,0.8,0,2.8,6.2,2.8l8.2,0.1
		c3.3,0,4.6-0.7,5-1.1c0.4-0.4,0.6-1,0.5-1.6l-0.2-58.3c7.1-0.5,14.1-1.5,21.1-3c0,0,1.6,0.3,4.4,0.6l0.3,60.9
		C467.5,309.3,466,313.4,462.9,316.3z M467.5,61.1c2.7-10.7,13.1-17.5,23.9-15.8c5.4,0.9,10.1,4.1,12.9,8.7c-5.9-4.2-13-6.1-20-3.8
		c-7.7,2.5-12.3,9.3-13.2,17.1c-0.1,2.5,0.2,5,0.9,7.5c0.9,2.7,2.2,5.3,3.9,7.6C468.7,78,465.6,69.2,467.5,61.1L467.5,61.1z
		 M498.5,69.5c0,3.9-3.1,7-7,7s-7-3.1-7-7s3.1-7,7-7S498.5,65.6,498.5,69.5C498.5,69.5,498.5,69.5,498.5,69.5L498.5,69.5z
		 M511.6,105c-9.2,5.5-20.1,7.5-30.6,5.7c-10.5-1.9-19.9-7.8-26.3-16.3c9,8.1,20.3,13.2,32.6,12.8c14.2-0.5,27.3-7.9,35.1-19.8
		c4.3-6.7,6.1-14,6.8-21.9c0-2.2-0.1-4.5-0.3-6.7c-0.5-3.9-1.5-7.6-2.9-11.2c-2.3-5.5-5.5-10.5-9.6-14.8c7.5,5.7,13,13.6,15.5,22.7
		c2.3,8.5,1.9,17.5-0.9,25.8C527.4,91.2,520.6,99.6,511.6,105z M519.3,200.7c2.1-6.9,4.1-14.5,4.1-21.8c-0.1-3.9-0.5-7.8-1-11.7
		c-0.4-3.9-0.9-7.9-1.3-11.8l-2.2-19.6l-1-9.3c2.9,11.5,5,23.1,6.5,34.8c0.8,6.4,2.1,13,1.7,19.4c-0.5,6.3-2,12.5-4.2,18.4
		c-2.2,6.1-5.1,12-8.6,17.5C515.6,211.5,517.7,206.2,519.3,200.7L519.3,200.7z M541.3,320.9c-3.6,3.4-9.5,5.1-17.8,5.1
		c-1.6,0-3.3-0.1-5.2-0.2c-4.1-0.3-8.3-0.6-12.4-0.8c-17.8-1.1-26.8-7.7-26.9-19.6l0-7.1l2.8,0.1c6.7,0.2,13.5,0.5,20.3,0.8l2.5,0.1
		l0.1,7.2c0,2.1,3.6,2.7,6.6,2.9l3.6,0.2c3.5,0.2,4.5-0.5,4.8-0.8s0.4-0.3,0.3-1.2l-0.2-14.9c0-0.9-0.2-1-0.3-1
		c-1.7-0.9-3.4-1.6-5.2-2.3c-6.1-2.2-12.5-4.5-19.1-6.8c-3.2-1-6.4-2.2-9.5-3.6c-2.1-1-4-2.5-5.2-4.5c-1.2-2.1-1.7-4.4-1.7-6.8
		l-0.1-17.4c0-2.1,0.3-4.2,1.1-6.2c8.7,0.1,18.9-0.8,25.6-4.8c2-1.5,3-3.9,2.6-6.3h10c12.2,0,26.7,3.1,26.9,17.9l0.1,11.5l-2.8-0.1
		l-20.2-0.5l-2.6,0l-0.1-10.3c0-2.6-4.7-2.7-6.2-2.7h-3.1c-3.8-0.1-5.1,0.8-5.5,1.2c-0.3,0.3-0.5,0.8-0.4,1.2l0.1,14.3
		c0,0.8,0.2,0.9,0.3,0.9c1.7,0.8,3.4,1.5,5.2,2.2c6.4,2.2,12.9,4.4,19.1,6.5c4.2,1.6,7.3,2.8,9.2,3.7c1.9,0.9,3.6,2.1,5,3.7
		c1.4,1.7,2.2,4.3,2.2,8.2l0.2,19C545.5,314.6,544.1,318.2,541.3,320.9L541.3,320.9z M545.4,223.6c-0.6-0.4-1.2-0.8-1.8-1.2
		c0.6-1.7,1.2-3.4,1.7-5.1l0,0c0.4-1.4,0.8-2.7,1.2-4.1l0.2-0.7c0.2-0.9,0.5-1.8,0.7-2.7s0.4-1.8,0.6-2.7c0-0.2,0.1-0.5,0.2-0.8
		c2.1-10,3-20.3,2.7-30.5v-0.2c0-0.1,0-0.2,0-0.4c-0.9-22.1-7.6-43.5-19.3-62.2c1.9-1.7,3.8-3.6,5.5-5.5
		c20.2,30.9,26.6,68.7,17.7,104.5C552,216.2,548.9,220.1,545.4,223.6L545.4,223.6z M618,329.3c-3.3,3-8.2,4.4-14.8,4.4
		c-2.5,0-5-0.2-7.4-0.5c-4.3-0.5-8.7-1-13-1.5c-17.6-2-26.6-8.9-26.8-20.5l-0.8-59.8c-0.2-4.3,1.3-8.4,4.3-11.5
		c4.3-4.4,11.6-6.5,22.2-6.5l0,0h13l0,0c12.2,0,26.8,3.4,27,19.3l0.2,13.9l-2.8-0.1c-6.7-0.3-13.4-0.5-20.1-0.8l-2.5-0.1l-0.2-12.3
		c0-0.8,0-3-6.5-3.1l-4-0.1c-3.3-0.1-4.4,0.7-4.7,1c-0.4,0.4-0.5,1-0.5,1.6l0.8,59.3c0,0.9,0,3,5.7,3.6l5,0.5
		c3.3,0.4,4.3-0.3,4.5-0.5s0.4-0.4,0.4-1.5l-0.1-8.1l3,0.3c6.8,0.6,13.5,1.4,20.2,2.1l2.4,0.2l0.1,8.6
		C622.7,322.4,621.1,326.5,618,329.3z M683.2,346.7c-15.7-2.9-31.8-5.6-47.6-8l-2.2-0.3l-1.6-104.9l25.5,0.1l1.3,90.9
		c8.5,1.2,17,2.6,25.4,3.9l2.2,0.4l0.3,18.5L683.2,346.7z M744,359.2c-16.3-3.7-32.9-7.2-49.4-10.4l-2.1-0.4L691,233.7h2.7
		c16.6,0.1,33.2,0.1,49.8,0.2h2.6l0.2,20l-2.8-0.1l-26.9-0.8l0.3,29.3c8,0.7,16,1.5,23.9,2.3l2.4,0.2l0.2,19.9l-3-0.4
		c-7.7-1-15.5-1.9-23.2-2.8l0.4,32.6c9.1,1.7,18.3,3.5,27.4,5.3l2.1,0.4l0.2,20.1L744,359.2z M812.7,369.5c-3,2.2-6.8,3.3-10.5,3.2
		c-3.4-0.1-6.8-0.6-10.2-1.5c-4-1.1-8-2.1-12.1-3.1c-17.1-4.5-25.8-14.9-26-31l-0.1-9.4l3.2,0.6c6.7,1.2,13.4,2.5,19.9,3.8l2.2,0.4
		l0,9.1c0,2.5,0.8,5.5,6.9,6.9l3.5,0.8c1.7,0.4,3.1,0.4,3.7-0.1s0.9-1.6,0.9-3.2l0-22.6c0-1.6-0.3-2.8-0.8-3.3
		c-1.6-1.4-3.3-2.7-5.1-3.9c-6.1-4-12.5-7.9-18.8-11.7c-3.2-1.8-6.4-3.8-9.4-6c-2.2-1.7-3.9-3.9-4.9-6.5c-1.1-2.9-1.6-5.9-1.5-8.9
		l-0.2-25.1c-0.1-7.2,1.9-12.9,5.9-16.9c4.5-4.5,11.4-6.8,20.7-6.8l0,0l12.5,0.1l0,0c8.8,0,15.5,2.3,20,6.7s6.8,11.1,6.8,19.8V277
		l-2.9-0.2c-6.7-0.5-13.3-1-20-1.5l-2.5-0.2v-14.1c0-2.8-0.8-5.4-6.2-5.6l-3.1-0.1c-1.5-0.1-3.6,0.1-4.7,1.2c-0.8,1-1.2,2.2-1.1,3.5
		l0.1,21.2c0,2.1,0.5,2.8,0.7,2.9c1.6,1.3,3.3,2.5,5.1,3.5c6.4,3.6,12.8,7.4,19,11.3c3.2,2,6.2,4.1,9.1,6.4c1.9,1.6,3.5,3.6,4.7,5.8
		c1.2,2.3,1.8,6,1.8,11.4v29.4C819.2,360.2,817,366.1,812.7,369.5L812.7,369.5z"/>
</g>
</svg>
